<?xml version="1.0" encoding="utf-8"?>
<!-- Generator: Adobe Illustrator 16.0.0, SVG Export Plug-In . SVG Version: 6.00 Build 0)  -->
<!DOCTYPE svg PUBLIC "-//W3C//DTD SVG 1.1//EN" "http://www.w3.org/Graphics/SVG/1.1/DTD/svg11.dtd">
<svg version="1.1" id="Layer_1" xmlns="http://www.w3.org/2000/svg" xmlns:xlink="http://www.w3.org/1999/xlink" x="0px" y="0px"
	 width="512px" height="512px" viewBox="0 0 512 512" enable-background="new 0 0 512 512" xml:space="preserve">
<g>
	<circle opacity="0.3" fill="#485E81" cx="256" cy="256" r="94"/>
	<g>
		<path fill="#DBE8D4" d="M313.094,181.328c36.906-49.65-24.191-76.76-62.858-76.76c-97.333,0-154.667,78.694-154.667,140.027
			c0,110.666,211.333,114,373.388,3.975c0,0-18.168-1.865-45.721,8.693c-105,40.232-293.667,73.846-293.667-20.264
			c0-50.404,43.333-118.404,134.667-118.404C287.432,118.596,335.57,134.596,313.094,181.328z"/>
		<path fill="#DBE8D4" d="M342,192.063l53.592,36.711l21.857,91.66l-34.561,82.496C382.889,402.93,398.236,288.596,342,192.063z"/>
		<path fill="#DBE8D4" d="M284.189,237l47.23,32.307L342,328.189l-32.428,55.701C309.572,383.891,327.199,310.445,284.189,237z"/>
	</g>
</g>
</svg>
